P3
64 64
255
255 255 255
255 255 255
255 255 255
255 255 255
255 255 255
255 255 255
255 255 255
255 255 255
255 255 255
255 255 255
255 255 255
255 255 255
255 255 255
255 255 255
255 255 255
255 255 255
255 255 255
255 255 255
255 255 255
255 255 255
255 255 255
255 255 255
255 255 255
255 255 255
255 255 255
255 255 255
255 255 255
255 255 255
255 255 255
255 255 255
255 255 255
255 255 255
255 255 255
255 255 255
255 255 255
255 255 255
255 255 255
255 255 255
255 255 255
255 255 255
255 255 255
255 255 255
255 255 255
255 255 255
255 255 255
255 255 255
255 255 255
255 255 255
255 255 255
255 255 255
255 255 255
255 255 255
255 255 255
255 255 255
255 255 255
255 255 255
255 255 255
255 255 255
255 255 255
255 255 255
255 255 255
255 255 255
255 255 255
255 255 255
0 70 230
0 70 230
0 70 230
0 70 230
0 70 230
0 70 230
0 70 230
0 70 230
0 70 230
0 70 230
0 70 230
0 70 230
0 70 230
0 70 230
0 70 230
0 70 230
0 70 230
0 70 230
0 70 230
0 70 230
0 70 230
0 70 230
0 70 230
0 70 230
0 70 230
0 70 230
0 70 230
0 70 230
0 70 230
0 70 230
0 70 230
0 70 230
0 70 230
0 70 230
0 70 230
0 70 230
0 70 230
0 70 230
0 70 230
0 70 230
0 70 230
0 70 230
0 70 230
0 70 230
0 70 230
0 70 230
0 70 230
0 70 230
0 70 230
0 70 230
0 70 230
0 70 230
0 70 230
0 70 230
0 70 230
0 70 230
0 70 230
0 70 230
0 70 230
0 70 230
0 70 230
0 70 230
0 70 230
0 70 230
255 255 255
255 255 255
255 255 255
255 255 255
255 255 255
255 255 255
255 255 255
255 255 255
255 255 255
255 255 255
255 255 255
255 255 255
255 255 255
255 255 255
255 255 255
255 255 255
255 255 255
255 255 255
255 255 255
255 255 255
255 255 255
255 255 255
255 255 255
255 255 255
255 255 255
255 255 255
255 255 255
255 255 255
255 255 255
255 255 255
255 255 255
255 255 255
255 255 255
255 255 255
255 255 255
255 255 255
255 255 255
255 255 255
255 255 255
255 255 255
255 255 255
255 255 255
255 255 255
255 255 255
255 255 255
255 255 255
255 255 255
255 255 255
255 255 255
255 255 255
255 255 255
255 255 255
255 255 255
255 255 255
255 255 255
255 255 255
255 255 255
255 255 255
255 255 255
255 255 255
255 255 255
255 255 255
255 255 255
255 255 255
0 70 230
0 70 230
0 70 230
0 70 230
0 70 230
0 70 230
0 70 230
0 70 230
0 70 230
0 70 230
0 70 230
0 70 230
0 70 230
0 70 230
0 70 230
0 70 230
0 70 230
0 70 230
0 70 230
0 70 230
0 70 230
0 70 230
0 70 230
0 70 230
0 70 230
0 70 230
0 70 230
0 70 230
0 70 230
0 70 230
0 70 230
0 70 230
0 70 230
0 70 230
0 70 230
0 70 230
0 70 230
0 70 230
0 70 230
0 70 230
0 70 230
0 70 230
0 70 230
0 70 230
0 70 230
0 70 230
0 70 230
0 70 230
0 70 230
0 70 230
0 70 230
0 70 230
0 70 230
0 70 230
0 70 230
0 70 230
0 70 230
0 70 230
0 70 230
0 70 230
0 70 230
0 70 230
0 70 230
0 70 230
255 255 255
255 255 255
255 255 255
255 255 255
255 255 255
255 255 255
255 255 255
255 255 255
255 255 255
255 255 255
255 255 255
255 255 255
255 255 255
255 255 255
255 255 255
255 255 255
255 255 255
255 255 255
255 255 255
255 255 255
255 255 255
255 255 255
255 255 255
255 255 255
255 255 255
255 255 255
255 255 255
255 255 255
255 255 255
255 255 255
255 255 255
255 255 255
255 255 255
255 255 255
255 255 255
255 255 255
255 255 255
255 255 255
255 255 255
255 255 255
255 255 255
255 255 255
255 255 255
255 255 255
255 255 255
255 255 255
255 255 255
255 255 255
255 255 255
255 255 255
255 255 255
255 255 255
255 255 255
255 255 255
255 255 255
255 255 255
255 255 255
255 255 255
255 255 255
255 255 255
255 255 255
255 255 255
255 255 255
255 255 255
0 70 230
0 70 230
0 70 230
0 70 230
0 70 230
0 70 230
0 70 230
0 70 230
0 70 230
0 70 230
0 70 230
0 70 230
0 70 230
0 70 230
0 70 230
0 70 230
0 70 230
0 70 230
0 70 230
0 70 230
0 70 230
0 70 230
0 70 230
0 70 230
0 70 230
0 70 230
0 70 230
0 70 230
0 70 230
0 70 230
0 70 230
0 70 230
0 70 230
0 70 230
0 70 230
0 70 230
0 70 230
0 70 230
0 70 230
0 70 230
0 70 230
0 70 230
0 70 230
0 70 230
0 70 230
0 70 230
0 70 230
0 70 230
0 70 230
0 70 230
0 70 230
0 70 230
0 70 230
0 70 230
0 70 230
0 70 230
0 70 230
0 70 230
0 70 230
0 70 230
0 70 230
0 70 230
0 70 230
0 70 230
255 255 255
255 255 255
255 255 255
255 255 255
255 255 255
255 255 255
255 255 255
255 255 255
255 255 255
255 255 255
255 255 255
255 255 255
255 255 255
255 255 255
255 255 255
255 255 255
255 255 255
255 255 255
255 255 255
255 255 255
255 255 255
255 255 255
255 255 255
255 255 255
255 255 255
255 255 255
255 255 255
255 255 255
255 255 255
255 255 255
255 255 255
255 255 255
255 255 255
255 255 255
255 255 255
255 255 255
255 255 255
255 255 255
255 255 255
255 255 255
255 255 255
255 255 255
255 255 255
255 255 255
255 255 255
255 255 255
255 255 255
255 255 255
255 255 255
255 255 255
255 255 255
255 255 255
255 255 255
255 255 255
255 255 255
255 255 255
255 255 255
255 255 255
255 255 255
255 255 255
255 255 255
255 255 255
255 255 255
255 255 255
0 70 230
0 70 230
0 70 230
0 70 230
0 70 230
0 70 230
0 70 230
0 70 230
0 70 230
0 70 230
0 70 230
0 70 230
0 70 230
0 70 230
0 70 230
0 70 230
0 70 230
0 70 230
0 70 230
0 70 230
0 70 230
0 70 230
0 70 230
0 70 230
0 70 230
0 70 230
0 70 230
0 70 230
0 70 230
0 70 230
0 70 230
0 70 230
0 70 230
0 70 230
0 70 230
0 70 230
0 70 230
0 70 230
0 70 230
0 70 230
0 70 230
0 70 230
0 70 230
0 70 230
0 70 230
0 70 230
0 70 230
0 70 230
0 70 230
0 70 230
0 70 230
0 70 230
0 70 230
0 70 230
0 70 230
0 70 230
0 70 230
0 70 230
0 70 230
0 70 230
0 70 230
0 70 230
0 70 230
0 70 230
255 255 255
255 255 255
255 255 255
255 255 255
255 255 255
255 255 255
255 255 255
255 255 255
255 255 255
255 255 255
255 255 255
255 255 255
255 255 255
255 255 255
255 255 255
255 255 255
255 255 255
255 255 255
255 255 255
255 255 255
255 255 255
255 255 255
255 255 255
255 255 255
255 255 255
255 255 255
255 255 255
255 255 255
255 255 255
255 255 255
255 255 255
255 255 255
255 255 255
255 255 255
255 255 255
255 255 255
255 255 255
255 255 255
255 255 255
255 255 255
255 255 255
255 255 255
255 255 255
255 255 255
255 255 255
255 255 255
255 255 255
255 255 255
255 255 255
255 255 255
255 255 255
255 255 255
255 255 255
255 255 255
255 255 255
255 255 255
255 255 255
255 255 255
255 255 255
255 255 255
255 255 255
255 255 255
255 255 255
255 255 255
0 70 230
0 70 230
0 70 230
0 70 230
0 70 230
0 70 230
0 70 230
0 70 230
0 70 230
0 70 230
0 70 230
0 70 230
0 70 230
0 70 230
0 70 230
0 70 230
0 70 230
0 70 230
0 70 230
0 70 230
0 70 230
0 70 230
0 70 230
0 70 230
0 70 230
0 70 230
0 70 230
0 70 230
0 70 230
0 70 230
0 70 230
0 70 230
0 70 230
0 70 230
0 70 230
0 70 230
0 70 230
0 70 230
0 70 230
0 70 230
0 70 230
0 70 230
0 70 230
0 70 230
0 70 230
0 70 230
0 70 230
0 70 230
0 70 230
0 70 230
0 70 230
0 70 230
0 70 230
0 70 230
0 70 230
0 70 230
0 70 230
0 70 230
0 70 230
0 70 230
0 70 230
0 70 230
0 70 230
0 70 230
255 255 255
255 255 255
255 255 255
255 255 255
255 255 255
255 255 255
255 255 255
255 255 255
255 255 255
255 255 255
255 255 255
255 255 255
255 255 255
255 255 255
255 255 255
255 255 255
255 255 255
255 255 255
255 255 255
255 255 255
255 255 255
255 255 255
255 255 255
255 255 255
255 255 255
255 255 255
255 255 255
255 255 255
255 255 255
255 255 255
255 255 255
255 255 255
255 255 255
255 255 255
255 255 255
255 255 255
255 255 255
255 255 255
255 255 255
255 255 255
255 255 255
255 255 255
255 255 255
255 255 255
255 255 255
255 255 255
255 255 255
255 255 255
255 255 255
255 255 255
255 255 255
255 255 255
255 255 255
255 255 255
255 255 255
255 255 255
255 255 255
255 255 255
255 255 255
255 255 255
255 255 255
255 255 255
255 255 255
255 255 255
0 70 230
0 70 230
0 70 230
0 70 230
0 70 230
0 70 230
0 70 230
0 70 230
0 70 230
0 70 230
0 70 230
0 70 230
0 70 230
0 70 230
0 70 230
0 70 230
0 70 230
0 70 230
0 70 230
0 70 230
0 70 230
0 70 230
0 70 230
0 70 230
0 70 230
0 70 230
0 70 230
0 70 230
0 70 230
0 70 230
0 70 230
0 70 230
0 70 230
0 70 230
0 70 230
0 70 230
0 70 230
0 70 230
0 70 230
0 70 230
0 70 230
0 70 230
0 70 230
0 70 230
0 70 230
0 70 230
0 70 230
0 70 230
0 70 230
0 70 230
0 70 230
0 70 230
0 70 230
0 70 230
0 70 230
0 70 230
0 70 230
0 70 230
0 70 230
0 70 230
0 70 230
0 70 230
0 70 230
0 70 230
255 255 255
255 255 255
255 255 255
255 255 255
255 255 255
255 255 255
255 255 255
255 255 255
255 255 255
255 255 255
255 255 255
255 255 255
255 255 255
255 255 255
255 255 255
255 255 255
255 255 255
255 255 255
255 255 255
255 255 255
255 255 255
255 255 255
255 255 255
255 255 255
255 255 255
255 255 255
255 255 255
255 255 255
255 255 255
255 255 255
255 255 255
255 255 255
255 255 255
255 255 255
255 255 255
255 255 255
255 255 255
255 255 255
255 255 255
255 255 255
255 255 255
255 255 255
255 255 255
255 255 255
255 255 255
255 255 255
255 255 255
255 255 255
255 255 255
255 255 255
255 255 255
255 255 255
255 255 255
255 255 255
255 255 255
255 255 255
255 255 255
255 255 255
255 255 255
255 255 255
255 255 255
255 255 255
255 255 255
255 255 255
0 70 230
0 70 230
0 70 230
0 70 230
0 70 230
0 70 230
0 70 230
0 70 230
0 70 230
0 70 230
0 70 230
0 70 230
0 70 230
0 70 230
0 70 230
0 70 230
0 70 230
0 70 230
0 70 230
0 70 230
0 70 230
0 70 230
0 70 230
0 70 230
0 70 230
0 70 230
0 70 230
0 70 230
0 70 230
0 70 230
0 70 230
0 70 230
0 70 230
0 70 230
0 70 230
0 70 230
0 70 230
0 70 230
0 70 230
0 70 230
0 70 230
0 70 230
0 70 230
0 70 230
0 70 230
0 70 230
0 70 230
0 70 230
0 70 230
0 70 230
0 70 230
0 70 230
0 70 230
0 70 230
0 70 230
0 70 230
0 70 230
0 70 230
0 70 230
0 70 230
0 70 230
0 70 230
0 70 230
0 70 230
255 255 255
255 255 255
255 255 255
255 255 255
255 255 255
255 255 255
255 255 255
255 255 255
255 255 255
255 255 255
255 255 255
255 255 255
255 255 255
255 255 255
255 255 255
255 255 255
255 255 255
255 255 255
255 255 255
255 255 255
255 255 255
255 255 255
255 255 255
255 255 255
255 255 255
255 255 255
255 255 255
255 255 255
255 255 255
255 255 255
255 255 255
255 255 255
255 255 255
255 255 255
255 255 255
255 255 255
255 255 255
255 255 255
255 255 255
255 255 255
255 255 255
255 255 255
255 255 255
255 255 255
255 255 255
255 255 255
255 255 255
255 255 255
255 255 255
255 255 255
255 255 255
255 255 255
255 255 255
255 255 255
255 255 255
255 255 255
255 255 255
255 255 255
255 255 255
255 255 255
255 255 255
255 255 255
255 255 255
255 255 255
0 70 230
0 70 230
0 70 230
0 70 230
0 70 230
0 70 230
0 70 230
0 70 230
0 70 230
0 70 230
0 70 230
0 70 230
0 70 230
0 70 230
0 70 230
0 70 230
0 70 230
0 70 230
0 70 230
0 70 230
0 70 230
0 70 230
0 70 230
0 70 230
0 70 230
0 70 230
0 70 230
0 70 230
0 70 230
0 70 230
0 70 230
0 70 230
0 70 230
0 70 230
0 70 230
0 70 230
0 70 230
0 70 230
0 70 230
0 70 230
0 70 230
0 70 230
0 70 230
0 70 230
0 70 230
0 70 230
0 70 230
0 70 230
0 70 230
0 70 230
0 70 230
0 70 230
0 70 230
0 70 230
0 70 230
0 70 230
0 70 230
0 70 230
0 70 230
0 70 230
0 70 230
0 70 230
0 70 230
0 70 230
255 255 255
255 255 255
255 255 255
255 255 255
255 255 255
255 255 255
255 255 255
255 255 255
255 255 255
255 255 255
255 255 255
255 255 255
255 255 255
255 255 255
255 255 255
255 255 255
255 255 255
255 255 255
255 255 255
255 255 255
255 255 255
255 255 255
255 255 255
255 255 255
255 255 255
255 255 255
255 255 255
255 255 255
255 255 255
255 255 255
255 255 255
255 255 255
255 255 255
255 255 255
255 255 255
255 255 255
255 255 255
255 255 255
255 255 255
255 255 255
255 255 255
255 255 255
255 255 255
255 255 255
255 255 255
255 255 255
255 255 255
255 255 255
255 255 255
255 255 255
255 255 255
255 255 255
255 255 255
255 255 255
255 255 255
255 255 255
255 255 255
255 255 255
255 255 255
255 255 255
255 255 255
255 255 255
255 255 255
255 255 255
0 70 230
0 70 230
0 70 230
0 70 230
0 70 230
0 70 230
0 70 230
0 70 230
0 70 230
0 70 230
0 70 230
0 70 230
0 70 230
0 70 230
0 70 230
0 70 230
0 70 230
0 70 230
0 70 230
0 70 230
0 70 230
0 70 230
0 70 230
0 70 230
0 70 230
0 70 230
0 70 230
0 70 230
0 70 230
0 70 230
0 70 230
0 70 230
0 70 230
0 70 230
0 70 230
0 70 230
0 70 230
0 70 230
0 70 230
0 70 230
0 70 230
0 70 230
0 70 230
0 70 230
0 70 230
0 70 230
0 70 230
0 70 230
0 70 230
0 70 230
0 70 230
0 70 230
0 70 230
0 70 230
0 70 230
0 70 230
0 70 230
0 70 230
0 70 230
0 70 230
0 70 230
0 70 230
0 70 230
0 70 230
255 255 255
255 255 255
255 255 255
255 255 255
255 255 255
255 255 255
255 255 255
255 255 255
255 255 255
255 255 255
255 255 255
255 255 255
255 255 255
255 255 255
255 255 255
255 255 255
255 255 255
255 255 255
255 255 255
255 255 255
255 255 255
255 255 255
255 255 255
255 255 255
255 255 255
255 255 255
255 255 255
255 255 255
255 255 255
255 255 255
255 255 255
255 255 255
255 255 255
255 255 255
255 255 255
255 255 255
255 255 255
255 255 255
255 255 255
255 255 255
255 255 255
255 255 255
255 255 255
255 255 255
255 255 255
255 255 255
255 255 255
255 255 255
255 255 255
255 255 255
255 255 255
255 255 255
255 255 255
255 255 255
255 255 255
255 255 255
255 255 255
255 255 255
255 255 255
255 255 255
255 255 255
255 255 255
255 255 255
255 255 255
0 70 230
0 70 230
0 70 230
0 70 230
0 70 230
0 70 230
0 70 230
0 70 230
0 70 230
0 70 230
0 70 230
0 70 230
0 70 230
0 70 230
0 70 230
0 70 230
0 70 230
0 70 230
0 70 230
0 70 230
0 70 230
0 70 230
0 70 230
0 70 230
0 70 230
0 70 230
0 70 230
0 70 230
0 70 230
0 70 230
0 70 230
0 70 230
0 70 230
0 70 230
0 70 230
0 70 230
0 70 230
0 70 230
0 70 230
0 70 230
0 70 230
0 70 230
0 70 230
0 70 230
0 70 230
0 70 230
0 70 230
0 70 230
0 70 230
0 70 230
0 70 230
0 70 230
0 70 230
0 70 230
0 70 230
0 70 230
0 70 230
0 70 230
0 70 230
0 70 230
0 70 230
0 70 230
0 70 230
0 70 230
255 255 255
255 255 255
255 255 255
255 255 255
255 255 255
255 255 255
255 255 255
255 255 255
255 255 255
255 255 255
255 255 255
255 255 255
255 255 255
255 255 255
255 255 255
255 255 255
255 255 255
255 255 255
255 255 255
255 255 255
255 255 255
255 255 255
255 255 255
255 255 255
255 255 255
255 255 255
255 255 255
255 255 255
255 255 255
255 255 255
255 255 255
255 255 255
255 255 255
255 255 255
255 255 255
255 255 255
255 255 255
255 255 255
255 255 255
255 255 255
255 255 255
255 255 255
255 255 255
255 255 255
255 255 255
255 255 255
255 255 255
255 255 255
255 255 255
255 255 255
255 255 255
255 255 255
255 255 255
255 255 255
255 255 255
255 255 255
255 255 255
255 255 255
255 255 255
255 255 255
255 255 255
255 255 255
255 255 255
255 255 255
0 70 230
0 70 230
0 70 230
0 70 230
0 70 230
0 70 230
0 70 230
0 70 230
0 70 230
0 70 230
0 70 230
0 70 230
0 70 230
0 70 230
0 70 230
0 70 230
0 70 230
0 70 230
0 70 230
0 70 230
0 70 230
0 70 230
0 70 230
0 70 230
0 70 230
0 70 230
0 70 230
0 70 230
0 70 230
0 70 230
0 70 230
0 70 230
0 70 230
0 70 230
0 70 230
0 70 230
0 70 230
0 70 230
0 70 230
0 70 230
0 70 230
0 70 230
0 70 230
0 70 230
0 70 230
0 70 230
0 70 230
0 70 230
0 70 230
0 70 230
0 70 230
0 70 230
0 70 230
0 70 230
0 70 230
0 70 230
0 70 230
0 70 230
0 70 230
0 70 230
0 70 230
0 70 230
0 70 230
0 70 230
255 255 255
255 255 255
255 255 255
255 255 255
255 255 255
255 255 255
255 255 255
255 255 255
255 255 255
255 255 255
255 255 255
255 255 255
255 255 255
255 255 255
255 255 255
255 255 255
255 255 255
255 255 255
255 255 255
255 255 255
255 255 255
255 255 255
255 255 255
255 255 255
255 255 255
255 255 255
255 255 255
255 255 255
255 255 255
255 255 255
255 255 255
255 255 255
255 255 255
255 255 255
255 255 255
255 255 255
255 255 255
255 255 255
255 255 255
255 255 255
255 255 255
255 255 255
255 255 255
255 255 255
255 255 255
255 255 255
255 255 255
255 255 255
255 255 255
255 255 255
255 255 255
255 255 255
255 255 255
255 255 255
255 255 255
255 255 255
255 255 255
255 255 255
255 255 255
255 255 255
255 255 255
255 255 255
255 255 255
255 255 255
0 70 230
0 70 230
0 70 230
0 70 230
0 70 230
0 70 230
0 70 230
0 70 230
0 70 230
0 70 230
0 70 230
0 70 230
0 70 230
0 70 230
0 70 230
0 70 230
0 70 230
0 70 230
0 70 230
0 70 230
0 70 230
0 70 230
0 70 230
0 70 230
0 70 230
0 70 230
0 70 230
0 70 230
0 70 230
0 70 230
0 70 230
0 70 230
0 70 230
0 70 230
0 70 230
0 70 230
0 70 230
0 70 230
0 70 230
0 70 230
0 70 230
0 70 230
0 70 230
0 70 230
0 70 230
0 70 230
0 70 230
0 70 230
0 70 230
0 70 230
0 70 230
0 70 230
0 70 230
0 70 230
0 70 230
0 70 230
0 70 230
0 70 230
0 70 230
0 70 230
0 70 230
0 70 230
0 70 230
0 70 230
255 255 255
255 255 255
255 255 255
255 255 255
255 255 255
255 255 255
255 255 255
255 255 255
255 255 255
255 255 255
255 255 255
255 255 255
255 255 255
255 255 255
255 255 255
255 255 255
255 255 255
255 255 255
255 255 255
255 255 255
255 255 255
255 255 255
255 255 255
255 255 255
255 255 255
255 255 255
255 255 255
255 255 255
255 255 255
255 255 255
255 255 255
255 255 255
255 255 255
255 255 255
255 255 255
255 255 255
255 255 255
255 255 255
255 255 255
255 255 255
255 255 255
255 255 255
255 255 255
255 255 255
255 255 255
255 255 255
255 255 255
255 255 255
255 255 255
255 255 255
255 255 255
255 255 255
255 255 255
255 255 255
255 255 255
255 255 255
255 255 255
255 255 255
255 255 255
255 255 255
255 255 255
255 255 255
255 255 255
255 255 255
0 70 230
0 70 230
0 70 230
0 70 230
0 70 230
0 70 230
0 70 230
0 70 230
0 70 230
0 70 230
0 70 230
0 70 230
0 70 230
0 70 230
0 70 230
0 70 230
0 70 230
0 70 230
0 70 230
0 70 230
0 70 230
0 70 230
0 70 230
0 70 230
0 70 230
0 70 230
0 70 230
0 70 230
0 70 230
0 70 230
0 70 230
0 70 230
0 70 230
0 70 230
0 70 230
0 70 230
0 70 230
0 70 230
0 70 230
0 70 230
0 70 230
0 70 230
0 70 230
0 70 230
0 70 230
0 70 230
0 70 230
0 70 230
0 70 230
0 70 230
0 70 230
0 70 230
0 70 230
0 70 230
0 70 230
0 70 230
0 70 230
0 70 230
0 70 230
0 70 230
0 70 230
0 70 230
0 70 230
0 70 230
255 255 255
255 255 255
255 255 255
255 255 255
255 255 255
255 255 255
255 255 255
255 255 255
255 255 255
255 255 255
255 255 255
255 255 255
255 255 255
255 255 255
255 255 255
255 255 255
255 255 255
255 255 255
255 255 255
255 255 255
255 255 255
255 255 255
255 255 255
255 255 255
255 255 255
255 255 255
255 255 255
255 255 255
255 255 255
255 255 255
255 255 255
255 255 255
255 255 255
255 255 255
255 255 255
255 255 255
255 255 255
255 255 255
255 255 255
255 255 255
255 255 255
255 255 255
255 255 255
255 255 255
255 255 255
255 255 255
255 255 255
255 255 255
255 255 255
255 255 255
255 255 255
255 255 255
255 255 255
255 255 255
255 255 255
255 255 255
255 255 255
255 255 255
255 255 255
255 255 255
255 255 255
255 255 255
255 255 255
255 255 255
0 70 230
0 70 230
0 70 230
0 70 230
0 70 230
0 70 230
0 70 230
0 70 230
0 70 230
0 70 230
0 70 230
0 70 230
0 70 230
0 70 230
0 70 230
0 70 230
0 70 230
0 70 230
0 70 230
0 70 230
0 70 230
0 70 230
0 70 230
0 70 230
0 70 230
0 70 230
0 70 230
0 70 230
0 70 230
0 70 230
0 70 230
0 70 230
0 70 230
0 70 230
0 70 230
0 70 230
0 70 230
0 70 230
0 70 230
0 70 230
0 70 230
0 70 230
0 70 230
0 70 230
0 70 230
0 70 230
0 70 230
0 70 230
0 70 230
0 70 230
0 70 230
0 70 230
0 70 230
0 70 230
0 70 230
0 70 230
0 70 230
0 70 230
0 70 230
0 70 230
0 70 230
0 70 230
0 70 230
0 70 230
255 255 255
255 255 255
255 255 255
255 255 255
255 255 255
255 255 255
255 255 255
255 255 255
255 255 255
255 255 255
255 255 255
255 255 255
255 255 255
255 255 255
255 255 255
255 255 255
255 255 255
255 255 255
255 255 255
255 255 255
255 255 255
255 255 255
255 255 255
255 255 255
255 255 255
255 255 255
255 255 255
255 255 255
255 255 255
255 255 255
255 255 255
255 255 255
255 255 255
255 255 255
255 255 255
255 255 255
255 255 255
255 255 255
255 255 255
255 255 255
255 255 255
255 255 255
255 255 255
255 255 255
255 255 255
255 255 255
255 255 255
255 255 255
255 255 255
255 255 255
255 255 255
255 255 255
255 255 255
255 255 255
255 255 255
255 255 255
255 255 255
255 255 255
255 255 255
255 255 255
255 255 255
255 255 255
255 255 255
255 255 255
0 70 230
0 70 230
0 70 230
0 70 230
0 70 230
0 70 230
0 70 230
0 70 230
0 70 230
0 70 230
0 70 230
0 70 230
0 70 230
0 70 230
0 70 230
0 70 230
0 70 230
0 70 230
0 70 230
0 70 230
0 70 230
0 70 230
0 70 230
0 70 230
0 70 230
0 70 230
0 70 230
0 70 230
0 70 230
0 70 230
0 70 230
0 70 230
0 70 230
0 70 230
0 70 230
0 70 230
0 70 230
0 70 230
0 70 230
0 70 230
0 70 230
0 70 230
0 70 230
0 70 230
0 70 230
0 70 230
0 70 230
0 70 230
0 70 230
0 70 230
0 70 230
0 70 230
0 70 230
0 70 230
0 70 230
0 70 230
0 70 230
0 70 230
0 70 230
0 70 230
0 70 230
0 70 230
0 70 230
0 70 230
255 255 255
255 255 255
255 255 255
255 255 255
255 255 255
255 255 255
255 255 255
255 255 255
255 255 255
255 255 255
255 255 255
255 255 255
255 255 255
255 255 255
255 255 255
255 255 255
255 255 255
255 255 255
255 255 255
255 255 255
255 255 255
255 255 255
255 255 255
255 255 255
255 255 255
255 255 255
255 255 255
255 255 255
255 255 255
255 255 255
255 255 255
255 255 255
255 255 255
255 255 255
255 255 255
255 255 255
255 255 255
255 255 255
255 255 255
255 255 255
255 255 255
255 255 255
255 255 255
255 255 255
255 255 255
255 255 255
255 255 255
255 255 255
255 255 255
255 255 255
255 255 255
255 255 255
255 255 255
255 255 255
255 255 255
255 255 255
255 255 255
255 255 255
255 255 255
255 255 255
255 255 255
255 255 255
255 255 255
255 255 255
0 70 230
0 70 230
0 70 230
0 70 230
0 70 230
0 70 230
0 70 230
0 70 230
0 70 230
0 70 230
0 70 230
0 70 230
0 70 230
0 70 230
0 70 230
0 70 230
0 70 230
0 70 230
0 70 230
0 70 230
0 70 230
0 70 230
0 70 230
0 70 230
0 70 230
0 70 230
0 70 230
0 70 230
0 70 230
0 70 230
0 70 230
0 70 230
0 70 230
0 70 230
0 70 230
0 70 230
0 70 230
0 70 230
0 70 230
0 70 230
0 70 230
0 70 230
0 70 230
0 70 230
0 70 230
0 70 230
0 70 230
0 70 230
0 70 230
0 70 230
0 70 230
0 70 230
0 70 230
0 70 230
0 70 230
0 70 230
0 70 230
0 70 230
0 70 230
0 70 230
0 70 230
0 70 230
0 70 230
0 70 230
255 255 255
255 255 255
255 255 255
255 255 255
255 255 255
255 255 255
255 255 255
255 255 255
255 255 255
255 255 255
255 255 255
255 255 255
255 255 255
255 255 255
255 255 255
255 255 255
255 255 255
255 255 255
255 255 255
255 255 255
255 255 255
255 255 255
255 255 255
255 255 255
255 255 255
255 255 255
255 255 255
255 255 255
255 255 255
255 255 255
255 255 255
255 255 255
255 255 255
255 255 255
255 255 255
255 255 255
255 255 255
255 255 255
255 255 255
255 255 255
255 255 255
255 255 255
255 255 255
255 255 255
255 255 255
255 255 255
255 255 255
255 255 255
255 255 255
255 255 255
255 255 255
255 255 255
255 255 255
255 255 255
255 255 255
255 255 255
255 255 255
255 255 255
255 255 255
255 255 255
255 255 255
255 255 255
255 255 255
255 255 255
0 70 230
0 70 230
0 70 230
0 70 230
0 70 230
0 70 230
0 70 230
0 70 230
0 70 230
0 70 230
0 70 230
0 70 230
0 70 230
0 70 230
0 70 230
0 70 230
0 70 230
0 70 230
0 70 230
0 70 230
0 70 230
0 70 230
0 70 230
0 70 230
0 70 230
0 70 230
0 70 230
0 70 230
0 70 230
0 70 230
0 70 230
0 70 230
0 70 230
0 70 230
0 70 230
0 70 230
0 70 230
0 70 230
0 70 230
0 70 230
0 70 230
0 70 230
0 70 230
0 70 230
0 70 230
0 70 230
0 70 230
0 70 230
0 70 230
0 70 230
0 70 230
0 70 230
0 70 230
0 70 230
0 70 230
0 70 230
0 70 230
0 70 230
0 70 230
0 70 230
0 70 230
0 70 230
0 70 230
0 70 230
255 255 255
255 255 255
255 255 255
255 255 255
255 255 255
255 255 255
255 255 255
255 255 255
255 255 255
255 255 255
255 255 255
255 255 255
255 255 255
255 255 255
255 255 255
255 255 255
255 255 255
255 255 255
255 255 255
255 255 255
255 255 255
255 255 255
255 255 255
255 255 255
255 255 255
255 255 255
255 255 255
255 255 255
255 255 255
255 255 255
255 255 255
255 255 255
255 255 255
255 255 255
255 255 255
255 255 255
255 255 255
255 255 255
255 255 255
255 255 255
255 255 255
255 255 255
255 255 255
255 255 255
255 255 255
255 255 255
255 255 255
255 255 255
255 255 255
255 255 255
255 255 255
255 255 255
255 255 255
255 255 255
255 255 255
255 255 255
255 255 255
255 255 255
255 255 255
255 255 255
255 255 255
255 255 255
255 255 255
255 255 255
0 70 230
0 70 230
0 70 230
0 70 230
0 70 230
0 70 230
0 70 230
0 70 230
0 70 230
0 70 230
0 70 230
0 70 230
0 70 230
0 70 230
0 70 230
0 70 230
0 70 230
0 70 230
0 70 230
0 70 230
0 70 230
0 70 230
0 70 230
0 70 230
0 70 230
0 70 230
0 70 230
0 70 230
0 70 230
0 70 230
0 70 230
0 70 230
0 70 230
0 70 230
0 70 230
0 70 230
0 70 230
0 70 230
0 70 230
0 70 230
0 70 230
0 70 230
0 70 230
0 70 230
0 70 230
0 70 230
0 70 230
0 70 230
0 70 230
0 70 230
0 70 230
0 70 230
0 70 230
0 70 230
0 70 230
0 70 230
0 70 230
0 70 230
0 70 230
0 70 230
0 70 230
0 70 230
0 70 230
0 70 230
255 255 255
255 255 255
255 255 255
255 255 255
255 255 255
255 255 255
255 255 255
255 255 255
255 255 255
255 255 255
255 255 255
255 255 255
255 255 255
255 255 255
255 255 255
255 255 255
255 255 255
255 255 255
255 255 255
255 255 255
255 255 255
255 255 255
255 255 255
255 255 255
255 255 255
255 255 255
255 255 255
255 255 255
255 255 255
255 255 255
255 255 255
255 255 255
255 255 255
255 255 255
255 255 255
255 255 255
255 255 255
255 255 255
255 255 255
255 255 255
255 255 255
255 255 255
255 255 255
255 255 255
255 255 255
255 255 255
255 255 255
255 255 255
255 255 255
255 255 255
255 255 255
255 255 255
255 255 255
255 255 255
255 255 255
255 255 255
255 255 255
255 255 255
255 255 255
255 255 255
255 255 255
255 255 255
255 255 255
255 255 255
0 70 230
0 70 230
0 70 230
0 70 230
0 70 230
0 70 230
0 70 230
0 70 230
0 70 230
0 70 230
0 70 230
0 70 230
0 70 230
0 70 230
0 70 230
0 70 230
0 70 230
0 70 230
0 70 230
0 70 230
0 70 230
0 70 230
0 70 230
0 70 230
0 70 230
0 70 230
0 70 230
0 70 230
0 70 230
0 70 230
0 70 230
0 70 230
0 70 230
0 70 230
0 70 230
0 70 230
0 70 230
0 70 230
0 70 230
0 70 230
0 70 230
0 70 230
0 70 230
0 70 230
0 70 230
0 70 230
0 70 230
0 70 230
0 70 230
0 70 230
0 70 230
0 70 230
0 70 230
0 70 230
0 70 230
0 70 230
0 70 230
0 70 230
0 70 230
0 70 230
0 70 230
0 70 230
0 70 230
0 70 230
255 255 255
255 255 255
255 255 255
255 255 255
255 255 255
255 255 255
255 255 255
255 255 255
255 255 255
255 255 255
255 255 255
255 255 255
255 255 255
255 255 255
255 255 255
255 255 255
255 255 255
255 255 255
255 255 255
255 255 255
255 255 255
255 255 255
255 255 255
255 255 255
255 255 255
255 255 255
255 255 255
255 255 255
255 255 255
255 255 255
255 255 255
255 255 255
255 255 255
255 255 255
255 255 255
255 255 255
255 255 255
255 255 255
255 255 255
255 255 255
255 255 255
255 255 255
255 255 255
255 255 255
255 255 255
255 255 255
255 255 255
255 255 255
255 255 255
255 255 255
255 255 255
255 255 255
255 255 255
255 255 255
255 255 255
255 255 255
255 255 255
255 255 255
255 255 255
255 255 255
255 255 255
255 255 255
255 255 255
255 255 255
0 70 230
0 70 230
0 70 230
0 70 230
0 70 230
0 70 230
0 70 230
0 70 230
0 70 230
0 70 230
0 70 230
0 70 230
0 70 230
0 70 230
0 70 230
0 70 230
0 70 230
0 70 230
0 70 230
0 70 230
0 70 230
0 70 230
0 70 230
0 70 230
0 70 230
0 70 230
0 70 230
0 70 230
0 70 230
0 70 230
0 70 230
0 70 230
0 70 230
0 70 230
0 70 230
0 70 230
0 70 230
0 70 230
0 70 230
0 70 230
0 70 230
0 70 230
0 70 230
0 70 230
0 70 230
0 70 230
0 70 230
0 70 230
0 70 230
0 70 230
0 70 230
0 70 230
0 70 230
0 70 230
0 70 230
0 70 230
0 70 230
0 70 230
0 70 230
0 70 230
0 70 230
0 70 230
0 70 230
0 70 230
255 255 255
255 255 255
255 255 255
255 255 255
255 255 255
255 255 255
255 255 255
255 255 255
255 255 255
255 255 255
255 255 255
255 255 255
255 255 255
255 255 255
255 255 255
255 255 255
255 255 255
255 255 255
255 255 255
255 255 255
255 255 255
255 255 255
255 255 255
255 255 255
255 255 255
255 255 255
255 255 255
255 255 255
255 255 255
255 255 255
255 255 255
255 255 255
255 255 255
255 255 255
255 255 255
255 255 255
255 255 255
255 255 255
255 255 255
255 255 255
255 255 255
255 255 255
255 255 255
255 255 255
255 255 255
255 255 255
255 255 255
255 255 255
255 255 255
255 255 255
255 255 255
255 255 255
255 255 255
255 255 255
255 255 255
255 255 255
255 255 255
255 255 255
255 255 255
255 255 255
255 255 255
255 255 255
255 255 255
255 255 255
0 70 230
0 70 230
0 70 230
0 70 230
0 70 230
0 70 230
0 70 230
0 70 230
0 70 230
0 70 230
0 70 230
0 70 230
0 70 230
0 70 230
0 70 230
0 70 230
0 70 230
0 70 230
0 70 230
0 70 230
0 70 230
0 70 230
0 70 230
0 70 230
0 70 230
0 70 230
0 70 230
0 70 230
0 70 230
0 70 230
0 70 230
0 70 230
0 70 230
0 70 230
0 70 230
0 70 230
0 70 230
0 70 230
0 70 230
0 70 230
0 70 230
0 70 230
0 70 230
0 70 230
0 70 230
0 70 230
0 70 230
0 70 230
0 70 230
0 70 230
0 70 230
0 70 230
0 70 230
0 70 230
0 70 230
0 70 230
0 70 230
0 70 230
0 70 230
0 70 230
0 70 230
0 70 230
0 70 230
0 70 230
255 255 255
255 255 255
255 255 255
255 255 255
255 255 255
255 255 255
255 255 255
255 255 255
255 255 255
255 255 255
255 255 255
255 255 255
255 255 255
255 255 255
255 255 255
255 255 255
255 255 255
255 255 255
255 255 255
255 255 255
255 255 255
255 255 255
255 255 255
255 255 255
255 255 255
255 255 255
255 255 255
255 255 255
255 255 255
255 255 255
255 255 255
255 255 255
255 255 255
255 255 255
255 255 255
255 255 255
255 255 255
255 255 255
255 255 255
255 255 255
255 255 255
255 255 255
255 255 255
255 255 255
255 255 255
255 255 255
255 255 255
255 255 255
255 255 255
255 255 255
255 255 255
255 255 255
255 255 255
255 255 255
255 255 255
255 255 255
255 255 255
255 255 255
255 255 255
255 255 255
255 255 255
255 255 255
255 255 255
255 255 255
0 70 230
0 70 230
0 70 230
0 70 230
0 70 230
0 70 230
0 70 230
0 70 230
0 70 230
0 70 230
0 70 230
0 70 230
0 70 230
0 70 230
0 70 230
0 70 230
0 70 230
0 70 230
0 70 230
0 70 230
0 70 230
0 70 230
0 70 230
0 70 230
0 70 230
0 70 230
0 70 230
0 70 230
0 70 230
0 70 230
0 70 230
0 70 230
0 70 230
0 70 230
0 70 230
0 70 230
0 70 230
0 70 230
0 70 230
0 70 230
0 70 230
0 70 230
0 70 230
0 70 230
0 70 230
0 70 230
0 70 230
0 70 230
0 70 230
0 70 230
0 70 230
0 70 230
0 70 230
0 70 230
0 70 230
0 70 230
0 70 230
0 70 230
0 70 230
0 70 230
0 70 230
0 70 230
0 70 230
0 70 230
255 255 255
255 255 255
255 255 255
255 255 255
255 255 255
255 255 255
255 255 255
255 255 255
255 255 255
255 255 255
255 255 255
255 255 255
255 255 255
255 255 255
255 255 255
255 255 255
255 255 255
255 255 255
255 255 255
255 255 255
255 255 255
255 255 255
255 255 255
255 255 255
255 255 255
255 255 255
255 255 255
255 255 255
255 255 255
255 255 255
255 255 255
255 255 255
255 255 255
255 255 255
255 255 255
255 255 255
255 255 255
255 255 255
255 255 255
255 255 255
255 255 255
255 255 255
255 255 255
255 255 255
255 255 255
255 255 255
255 255 255
255 255 255
255 255 255
255 255 255
255 255 255
255 255 255
255 255 255
255 255 255
255 255 255
255 255 255
255 255 255
255 255 255
255 255 255
255 255 255
255 255 255
255 255 255
255 255 255
255 255 255
0 70 230
0 70 230
0 70 230
0 70 230
0 70 230
0 70 230
0 70 230
0 70 230
0 70 230
0 70 230
0 70 230
0 70 230
0 70 230
0 70 230
0 70 230
0 70 230
0 70 230
0 70 230
0 70 230
0 70 230
0 70 230
0 70 230
0 70 230
0 70 230
0 70 230
0 70 230
0 70 230
0 70 230
0 70 230
0 70 230
0 70 230
0 70 230
0 70 230
0 70 230
0 70 230
0 70 230
0 70 230
0 70 230
0 70 230
0 70 230
0 70 230
0 70 230
0 70 230
0 70 230
0 70 230
0 70 230
0 70 230
0 70 230
0 70 230
0 70 230
0 70 230
0 70 230
0 70 230
0 70 230
0 70 230
0 70 230
0 70 230
0 70 230
0 70 230
0 70 230
0 70 230
0 70 230
0 70 230
0 70 230
255 255 255
255 255 255
255 255 255
255 255 255
255 255 255
255 255 255
255 255 255
255 255 255
255 255 255
255 255 255
255 255 255
255 255 255
255 255 255
255 255 255
255 255 255
255 255 255
255 255 255
255 255 255
255 255 255
255 255 255
255 255 255
255 255 255
255 255 255
255 255 255
255 255 255
255 255 255
255 255 255
255 255 255
255 255 255
255 255 255
255 255 255
255 255 255
255 255 255
255 255 255
255 255 255
255 255 255
255 255 255
255 255 255
255 255 255
255 255 255
255 255 255
255 255 255
255 255 255
255 255 255
255 255 255
255 255 255
255 255 255
255 255 255
255 255 255
255 255 255
255 255 255
255 255 255
255 255 255
255 255 255
255 255 255
255 255 255
255 255 255
255 255 255
255 255 255
255 255 255
255 255 255
255 255 255
255 255 255
255 255 255
0 70 230
0 70 230
0 70 230
0 70 230
0 70 230
0 70 230
0 70 230
0 70 230
0 70 230
0 70 230
0 70 230
0 70 230
0 70 230
0 70 230
0 70 230
0 70 230
0 70 230
0 70 230
0 70 230
0 70 230
0 70 230
0 70 230
0 70 230
0 70 230
0 70 230
0 70 230
0 70 230
0 70 230
0 70 230
0 70 230
0 70 230
0 70 230
0 70 230
0 70 230
0 70 230
0 70 230
0 70 230
0 70 230
0 70 230
0 70 230
0 70 230
0 70 230
0 70 230
0 70 230
0 70 230
0 70 230
0 70 230
0 70 230
0 70 230
0 70 230
0 70 230
0 70 230
0 70 230
0 70 230
0 70 230
0 70 230
0 70 230
0 70 230
0 70 230
0 70 230
0 70 230
0 70 230
0 70 230
0 70 230
255 255 255
255 255 255
255 255 255
255 255 255
255 255 255
255 255 255
255 255 255
255 255 255
255 255 255
255 255 255
255 255 255
255 255 255
255 255 255
255 255 255
255 255 255
255 255 255
255 255 255
255 255 255
255 255 255
255 255 255
255 255 255
255 255 255
255 255 255
255 255 255
255 255 255
255 255 255
255 255 255
255 255 255
255 255 255
255 255 255
255 255 255
255 255 255
255 255 255
255 255 255
255 255 255
255 255 255
255 255 255
255 255 255
255 255 255
255 255 255
255 255 255
255 255 255
255 255 255
255 255 255
255 255 255
255 255 255
255 255 255
255 255 255
255 255 255
255 255 255
255 255 255
255 255 255
255 255 255
255 255 255
255 255 255
255 255 255
255 255 255
255 255 255
255 255 255
255 255 255
255 255 255
255 255 255
255 255 255
255 255 255
0 70 230
0 70 230
0 70 230
0 70 230
0 70 230
0 70 230
0 70 230
0 70 230
0 70 230
0 70 230
0 70 230
0 70 230
0 70 230
0 70 230
0 70 230
0 70 230
0 70 230
0 70 230
0 70 230
0 70 230
0 70 230
0 70 230
0 70 230
0 70 230
0 70 230
0 70 230
0 70 230
0 70 230
0 70 230
0 70 230
0 70 230
0 70 230
0 70 230
0 70 230
0 70 230
0 70 230
0 70 230
0 70 230
0 70 230
0 70 230
0 70 230
0 70 230
0 70 230
0 70 230
0 70 230
0 70 230
0 70 230
0 70 230
0 70 230
0 70 230
0 70 230
0 70 230
0 70 230
0 70 230
0 70 230
0 70 230
0 70 230
0 70 230
0 70 230
0 70 230
0 70 230
0 70 230
0 70 230
0 70 230
255 255 255
255 255 255
255 255 255
255 255 255
255 255 255
255 255 255
255 255 255
255 255 255
255 255 255
255 255 255
255 255 255
255 255 255
255 255 255
255 255 255
255 255 255
255 255 255
255 255 255
255 255 255
255 255 255
255 255 255
255 255 255
255 255 255
255 255 255
255 255 255
255 255 255
255 255 255
255 255 255
255 255 255
255 255 255
255 255 255
255 255 255
255 255 255
255 255 255
255 255 255
255 255 255
255 255 255
255 255 255
255 255 255
255 255 255
255 255 255
255 255 255
255 255 255
255 255 255
255 255 255
255 255 255
255 255 255
255 255 255
255 255 255
255 255 255
255 255 255
255 255 255
255 255 255
255 255 255
255 255 255
255 255 255
255 255 255
255 255 255
255 255 255
255 255 255
255 255 255
255 255 255
255 255 255
255 255 255
255 255 255
0 70 230
0 70 230
0 70 230
0 70 230
0 70 230
0 70 230
0 70 230
0 70 230
0 70 230
0 70 230
0 70 230
0 70 230
0 70 230
0 70 230
0 70 230
0 70 230
0 70 230
0 70 230
0 70 230
0 70 230
0 70 230
0 70 230
0 70 230
0 70 230
0 70 230
0 70 230
0 70 230
0 70 230
0 70 230
0 70 230
0 70 230
0 70 230
0 70 230
0 70 230
0 70 230
0 70 230
0 70 230
0 70 230
0 70 230
0 70 230
0 70 230
0 70 230
0 70 230
0 70 230
0 70 230
0 70 230
0 70 230
0 70 230
0 70 230
0 70 230
0 70 230
0 70 230
0 70 230
0 70 230
0 70 230
0 70 230
0 70 230
0 70 230
0 70 230
0 70 230
0 70 230
0 70 230
0 70 230
0 70 230
255 255 255
255 255 255
255 255 255
255 255 255
255 255 255
255 255 255
255 255 255
255 255 255
255 255 255
255 255 255
255 255 255
255 255 255
255 255 255
255 255 255
255 255 255
255 255 255
255 255 255
255 255 255
255 255 255
255 255 255
255 255 255
255 255 255
255 255 255
255 255 255
255 255 255
255 255 255
255 255 255
255 255 255
255 255 255
255 255 255
255 255 255
255 255 255
255 255 255
255 255 255
255 255 255
255 255 255
255 255 255
255 255 255
255 255 255
255 255 255
255 255 255
255 255 255
255 255 255
255 255 255
255 255 255
255 255 255
255 255 255
255 255 255
255 255 255
255 255 255
255 255 255
255 255 255
255 255 255
255 255 255
255 255 255
255 255 255
255 255 255
255 255 255
255 255 255
255 255 255
255 255 255
255 255 255
255 255 255
255 255 255
0 70 230
0 70 230
0 70 230
0 70 230
0 70 230
0 70 230
0 70 230
0 70 230
0 70 230
0 70 230
0 70 230
0 70 230
0 70 230
0 70 230
0 70 230
0 70 230
0 70 230
0 70 230
0 70 230
0 70 230
0 70 230
0 70 230
0 70 230
0 70 230
0 70 230
0 70 230
0 70 230
0 70 230
0 70 230
0 70 230
0 70 230
0 70 230
0 70 230
0 70 230
0 70 230
0 70 230
0 70 230
0 70 230
0 70 230
0 70 230
0 70 230
0 70 230
0 70 230
0 70 230
0 70 230
0 70 230
0 70 230
0 70 230
0 70 230
0 70 230
0 70 230
0 70 230
0 70 230
0 70 230
0 70 230
0 70 230
0 70 230
0 70 230
0 70 230
0 70 230
0 70 230
0 70 230
0 70 230
0 70 230
255 255 255
255 255 255
255 255 255
255 255 255
255 255 255
255 255 255
255 255 255
255 255 255
255 255 255
255 255 255
255 255 255
255 255 255
255 255 255
255 255 255
255 255 255
255 255 255
255 255 255
255 255 255
255 255 255
255 255 255
255 255 255
255 255 255
255 255 255
255 255 255
255 255 255
255 255 255
255 255 255
255 255 255
255 255 255
255 255 255
255 255 255
255 255 255
255 255 255
255 255 255
255 255 255
255 255 255
255 255 255
255 255 255
255 255 255
255 255 255
255 255 255
255 255 255
255 255 255
255 255 255
255 255 255
255 255 255
255 255 255
255 255 255
255 255 255
255 255 255
255 255 255
255 255 255
255 255 255
255 255 255
255 255 255
255 255 255
255 255 255
255 255 255
255 255 255
255 255 255
255 255 255
255 255 255
255 255 255
255 255 255
0 70 230
0 70 230
0 70 230
0 70 230
0 70 230
0 70 230
0 70 230
0 70 230
0 70 230
0 70 230
0 70 230
0 70 230
0 70 230
0 70 230
0 70 230
0 70 230
0 70 230
0 70 230
0 70 230
0 70 230
0 70 230
0 70 230
0 70 230
0 70 230
0 70 230
0 70 230
0 70 230
0 70 230
0 70 230
0 70 230
0 70 230
0 70 230
0 70 230
0 70 230
0 70 230
0 70 230
0 70 230
0 70 230
0 70 230
0 70 230
0 70 230
0 70 230
0 70 230
0 70 230
0 70 230
0 70 230
0 70 230
0 70 230
0 70 230
0 70 230
0 70 230
0 70 230
0 70 230
0 70 230
0 70 230
0 70 230
0 70 230
0 70 230
0 70 230
0 70 230
0 70 230
0 70 230
0 70 230
0 70 230
255 255 255
255 255 255
255 255 255
255 255 255
255 255 255
255 255 255
255 255 255
255 255 255
255 255 255
255 255 255
255 255 255
255 255 255
255 255 255
255 255 255
255 255 255
255 255 255
255 255 255
255 255 255
255 255 255
255 255 255
255 255 255
255 255 255
255 255 255
255 255 255
255 255 255
255 255 255
255 255 255
255 255 255
255 255 255
255 255 255
255 255 255
255 255 255
255 255 255
255 255 255
255 255 255
255 255 255
255 255 255
255 255 255
255 255 255
255 255 255
255 255 255
255 255 255
255 255 255
255 255 255
255 255 255
255 255 255
255 255 255
255 255 255
255 255 255
255 255 255
255 255 255
255 255 255
255 255 255
255 255 255
255 255 255
255 255 255
255 255 255
255 255 255
255 255 255
255 255 255
255 255 255
255 255 255
255 255 255
255 255 255
0 70 230
0 70 230
0 70 230
0 70 230
0 70 230
0 70 230
0 70 230
0 70 230
0 70 230
0 70 230
0 70 230
0 70 230
0 70 230
0 70 230
0 70 230
0 70 230
0 70 230
0 70 230
0 70 230
0 70 230
0 70 230
0 70 230
0 70 230
0 70 230
0 70 230
0 70 230
0 70 230
0 70 230
0 70 230
0 70 230
0 70 230
0 70 230
0 70 230
0 70 230
0 70 230
0 70 230
0 70 230
0 70 230
0 70 230
0 70 230
0 70 230
0 70 230
0 70 230
0 70 230
0 70 230
0 70 230
0 70 230
0 70 230
0 70 230
0 70 230
0 70 230
0 70 230
0 70 230
0 70 230
0 70 230
0 70 230
0 70 230
0 70 230
0 70 230
0 70 230
0 70 230
0 70 230
0 70 230
0 70 230
255 255 255
255 255 255
255 255 255
255 255 255
255 255 255
255 255 255
255 255 255
255 255 255
255 255 255
255 255 255
255 255 255
255 255 255
255 255 255
255 255 255
255 255 255
255 255 255
255 255 255
255 255 255
255 255 255
255 255 255
255 255 255
255 255 255
255 255 255
255 255 255
255 255 255
255 255 255
255 255 255
255 255 255
255 255 255
255 255 255
255 255 255
255 255 255
255 255 255
255 255 255
255 255 255
255 255 255
255 255 255
255 255 255
255 255 255
255 255 255
255 255 255
255 255 255
255 255 255
255 255 255
255 255 255
255 255 255
255 255 255
255 255 255
255 255 255
255 255 255
255 255 255
255 255 255
255 255 255
255 255 255
255 255 255
255 255 255
255 255 255
255 255 255
255 255 255
255 255 255
255 255 255
255 255 255
255 255 255
255 255 255
0 70 230
0 70 230
0 70 230
0 70 230
0 70 230
0 70 230
0 70 230
0 70 230
0 70 230
0 70 230
0 70 230
0 70 230
0 70 230
0 70 230
0 70 230
0 70 230
0 70 230
0 70 230
0 70 230
0 70 230
0 70 230
0 70 230
0 70 230
0 70 230
0 70 230
0 70 230
0 70 230
0 70 230
0 70 230
0 70 230
0 70 230
0 70 230
0 70 230
0 70 230
0 70 230
0 70 230
0 70 230
0 70 230
0 70 230
0 70 230
0 70 230
0 70 230
0 70 230
0 70 230
0 70 230
0 70 230
0 70 230
0 70 230
0 70 230
0 70 230
0 70 230
0 70 230
0 70 230
0 70 230
0 70 230
0 70 230
0 70 230
0 70 230
0 70 230
0 70 230
0 70 230
0 70 230
0 70 230
0 70 230
255 255 255
255 255 255
255 255 255
255 255 255
255 255 255
255 255 255
255 255 255
255 255 255
255 255 255
255 255 255
255 255 255
255 255 255
255 255 255
255 255 255
255 255 255
255 255 255
255 255 255
255 255 255
255 255 255
255 255 255
255 255 255
255 255 255
255 255 255
255 255 255
255 255 255
255 255 255
255 255 255
255 255 255
255 255 255
255 255 255
255 255 255
255 255 255
255 255 255
255 255 255
255 255 255
255 255 255
255 255 255
255 255 255
255 255 255
255 255 255
255 255 255
255 255 255
255 255 255
255 255 255
255 255 255
255 255 255
255 255 255
255 255 255
255 255 255
255 255 255
255 255 255
255 255 255
255 255 255
255 255 255
255 255 255
255 255 255
255 255 255
255 255 255
255 255 255
255 255 255
255 255 255
255 255 255
255 255 255
255 255 255
0 70 230
0 70 230
0 70 230
0 70 230
0 70 230
0 70 230
0 70 230
0 70 230
0 70 230
0 70 230
0 70 230
0 70 230
0 70 230
0 70 230
0 70 230
0 70 230
0 70 230
0 70 230
0 70 230
0 70 230
0 70 230
0 70 230
0 70 230
0 70 230
0 70 230
0 70 230
0 70 230
0 70 230
0 70 230
0 70 230
0 70 230
0 70 230
0 70 230
0 70 230
0 70 230
0 70 230
0 70 230
0 70 230
0 70 230
0 70 230
0 70 230
0 70 230
0 70 230
0 70 230
0 70 230
0 70 230
0 70 230
0 70 230
0 70 230
0 70 230
0 70 230
0 70 230
0 70 230
0 70 230
0 70 230
0 70 230
0 70 230
0 70 230
0 70 230
0 70 230
0 70 230
0 70 230
0 70 230
0 70 230
255 255 255
255 255 255
255 255 255
255 255 255
255 255 255
255 255 255
255 255 255
255 255 255
255 255 255
255 255 255
255 255 255
255 255 255
255 255 255
255 255 255
255 255 255
255 255 255
255 255 255
255 255 255
255 255 255
255 255 255
255 255 255
255 255 255
255 255 255
255 255 255
255 255 255
255 255 255
255 255 255
255 255 255
255 255 255
255 255 255
255 255 255
255 255 255
255 255 255
255 255 255
255 255 255
255 255 255
255 255 255
255 255 255
255 255 255
255 255 255
255 255 255
255 255 255
255 255 255
255 255 255
255 255 255
255 255 255
255 255 255
255 255 255
255 255 255
255 255 255
255 255 255
255 255 255
255 255 255
255 255 255
255 255 255
255 255 255
255 255 255
255 255 255
255 255 255
255 255 255
255 255 255
255 255 255
255 255 255
255 255 255
0 70 230
0 70 230
0 70 230
0 70 230
0 70 230
0 70 230
0 70 230
0 70 230
0 70 230
0 70 230
0 70 230
0 70 230
0 70 230
0 70 230
0 70 230
0 70 230
0 70 230
0 70 230
0 70 230
0 70 230
0 70 230
0 70 230
0 70 230
0 70 230
0 70 230
0 70 230
0 70 230
0 70 230
0 70 230
0 70 230
0 70 230
0 70 230
0 70 230
0 70 230
0 70 230
0 70 230
0 70 230
0 70 230
0 70 230
0 70 230
0 70 230
0 70 230
0 70 230
0 70 230
0 70 230
0 70 230
0 70 230
0 70 230
0 70 230
0 70 230
0 70 230
0 70 230
0 70 230
0 70 230
0 70 230
0 70 230
0 70 230
0 70 230
0 70 230
0 70 230
0 70 230
0 70 230
0 70 230
0 70 230
